# xmcd CD database file
#
# Track frame offsets:
#	150
#	21315
#	48465
#	66105
#
# Disc length: 1204 seconds
#
# Revision: 0
# Processed by: cddbd v1.5.1PL0 Copyright (c) Steve Scherf et al.
# Submitted via: CDex 1.51
#
DISCID=3104b204
DTITLE=夜叉 - 夜叉
DYEAR=1900
DGENRE=Heavy Metal
TTITLE0=イカサマな世の中に牙を剥け
TTITLE1=満たされたい
TTITLE2=災い
TTITLE3=まがいもの
EXTD=
EXTT0=
EXTT1=
EXTT2=
EXTT3=
PLAYORDER=
